<svg xmlns="http://www.w3.org/2000/svg" viewBox="0 0 917.29456 267.52176" height="267.522" width="917.295"><defs><clipPath id="c"><path d="M0 255h782.657V0H0v255z"/></clipPath><clipPath id="d"><path d="M24.005 230.017h181.06V29.987H24.006v200.03z"/></clipPath><clipPath id="e"><path d="M24.005 130.573h181.06V29.986H24.006v100.587z"/></clipPath><clipPath id="f"><path d="M142.854 95.465h62.26V29.983h-62.26v65.482z"/></clipPath><clipPath id="g"><path d="M142.854 60.877l54.45-30.226c3.504-1.945 7.81.59 7.81 4.6l-.048 60.215-62.212-34.588z"/></clipPath><linearGradient id="h" gradientTransform="scale(63.6898) rotate(-45 2.924 -2.498)" gradientUnits="userSpaceOnUse" x2="1"><stop offset="0" stop-color="#bf360c"/><stop offset=".628" stop-color="#fff"/><stop offset="1" stop-color="#fff"/></linearGradient><clipPath id="i"><path d="M197.253 229.348L26.705 134.6c-3.607-2.005-3.607-7.19 0-9.196l170.548-94.748c3.505-1.948 7.813.587 7.813 4.597V224.75c0 3.065-2.515 5.268-5.266 5.267-.85 0-1.72-.21-2.547-.67"/></clipPath><clipPath id="a"><path d="M-32768 32767h65535v-65535h-65535v65535z"/></clipPath><radialGradient id="b" spreadMethod="pad" gradientTransform="scale(287.87584) rotate(-45 1.016 .132)" gradientUnits="userSpaceOnUse" r="1" cy="0" cx="0" fy="0" fx="0"><stop offset="0" stop-opacity=".1" stop-color="#fff"/><stop offset=".578" stop-opacity="0" stop-color="#fff"/><stop offset="1" stop-opacity="0" stop-color="#fff"/></radialGradient><mask id="j" height="1" width="1" y="0" x="0" maskUnits="userSpaceOnUse"><g clip-path="url(#a)"><path d="M-32768 32767h65535v-65535h-65535v65535z" fill="url(#b)"/></g></mask><radialGradient id="k" spreadMethod="pad" gradientTransform="scale(287.87584) rotate(-45 1.016 .132)" gradientUnits="userSpaceOnUse" r="1" cy="0" cx="0" fy="0" fx="0"><stop offset="0" stop-color="#fff"/><stop offset=".578" stop-color="#fff"/><stop offset="1" stop-color="#fff"/></radialGradient></defs><path d="M382.64 211.628h-22.165V60.333H312.29v-21.2h118.534v21.2H382.64v151.295z" fill="#616161"/><g clip-path="url(#c)" transform="matrix(1.25 0 0 -1.25 -30 287.522)"><path d="M393.148 73.82c7.323 0 13.972 2.73 19.947 8.192 5.975 5.46 8.96 11.916 8.96 19.37-5.01 4.11-12.526 6.167-22.548 6.167-8.61 0-15.1-1.865-19.465-5.59-4.37-3.73-6.553-8.095-6.553-13.106 0-4.625 1.99-8.287 5.974-10.985 3.98-2.7 8.543-4.05 13.684-4.05m-2.892-16.188c-10.022 0-18.405 2.89-25.152 8.672-6.745 5.783-10.118 13.426-10.118 22.935 0 10.277 3.982 18.34 11.95 24.188 7.965 5.845 17.794 8.77 29.49 8.77 10.406 0 18.95-1.928 25.63-5.783v2.698c0 6.94-2.377 12.495-7.13 16.67-4.756 4.176-10.6 6.265-17.54 6.265-5.14 0-9.798-1.222-13.97-3.66-4.18-2.444-7.037-5.783-8.58-10.024l-16.187 6.938c2.18 5.654 6.485 10.89 12.91 15.71 6.425 4.817 14.904 7.226 25.443 7.226 12.074 0 22.098-3.535 30.066-10.6 7.964-7.068 11.947-17.027 11.947-29.874v-57.05h-16.96v13.107h-.77c-7.068-10.793-17.413-16.188-31.03-16.188M472.86 155.154v-13.106h.77c2.57 4.496 6.618 8.318 12.143 11.468 5.524 3.147 11.435 4.72 17.733 4.72 11.69 0 20.62-3.597 26.79-10.79 6.167-7.2 9.25-16.835 9.25-28.912v-57.82h-17.73v55.122c0 17.472-7.776 26.212-23.32 26.212-7.326 0-13.3-2.924-17.926-8.77-4.626-5.847-6.94-12.623-6.94-20.332v-52.23H455.9v94.438h16.96zM600.972 73.82c8.35 0 15.45 3.084 21.297 9.252 5.845 6.167 8.77 14.455 8.77 24.862 0 10.408-2.925 18.696-8.77 24.863-5.85 6.168-12.947 9.25-21.298 9.25-8.224 0-15.292-3.116-21.2-9.346-5.913-6.233-8.867-14.487-8.867-24.766 0-10.28 2.954-18.535 8.866-24.766 5.91-6.234 12.978-9.347 21.202-9.347M599.624 16c-11.18 0-20.305 2.797-27.368 8.385-7.068 5.59-12.142 11.983-15.227 19.177l16.188 6.745c1.8-5.137 5.108-9.443 9.927-12.912 4.817-3.47 10.31-5.204 16.48-5.204 9.76 0 17.44 2.926 23.03 8.77 5.59 5.848 8.384 13.78 8.384 23.803v9.058h-.772c-3.084-4.625-7.453-8.48-13.106-11.563-5.656-3.084-12.017-4.625-19.08-4.625-12.21 0-22.744 4.817-31.61 14.455-8.865 9.636-13.297 21.585-13.297 35.847 0 14.263 4.432 26.212 13.298 35.85 8.865 9.636 19.4 14.454 31.608 14.454 7.065 0 13.426-1.54 19.082-4.626 5.653-3.083 10.022-6.938 13.106-11.564h.77v13.106H648v-89.62c0-16.19-4.69-28.492-14.07-36.908C624.55 20.212 613.115 16 599.625 16M687.584 83.168c6.102-6.234 13.33-9.347 21.683-9.347 8.35 0 15.578 3.114 21.682 9.348 6.1 6.23 9.154 14.485 9.154 24.766 0 10.28-3.054 18.532-9.155 24.767-6.105 6.23-13.332 9.348-21.683 9.348-8.354 0-15.58-3.117-21.683-9.347-6.104-6.234-9.155-14.487-9.155-24.766 0-10.28 3.05-18.536 9.154-24.766m-13.202 60.71c9.12 9.57 20.748 14.36 34.885 14.36 14.132 0 25.76-4.79 34.884-14.36 9.123-9.573 13.685-21.555 13.685-35.944 0-14.39-4.562-26.374-13.684-35.945-9.124-9.574-20.75-14.358-34.883-14.358-14.137 0-25.764 4.784-34.885 14.357-9.125 9.57-13.684 21.553-13.684 35.944 0 14.39 4.56 26.37 13.684 35.945" fill="#616161"/><path d="M26.705 134.6l170.547 94.748c3.506 1.947 7.814-.588 7.814-4.598V35.253c0-4.01-4.308-6.545-7.814-4.597L26.705 125.404c-3.607 2.004-3.607 7.19 0 9.195" fill="#ffe082"/><g clip-path="url(#d)" opacity=".2"><path d="M26.705 133.456l170.548 94.75c3.505 1.946 7.813-.59 7.813-4.6v1.144c0 4.01-4.308 6.545-7.813 4.598l-170.548-94.75c-1.995-1.107-2.88-3.19-2.67-5.168a5.185 5.185 0 0 0 2.67 4.026" fill="#fff"/><g clip-path="url(#e)" opacity=".2"><path d="M26.705 125.404l170.548-94.75c3.505-1.946 7.813.59 7.813 4.6v1.142c0-4.01-4.308-6.545-7.813-4.598l-170.548 94.75a5.186 5.186 0 0 0-2.67 4.025c-.21-1.98.675-4.06 2.67-5.17" fill="#bf360c"/></g></g><g clip-path="url(#g)" opacity=".2"><path d="M142.854 60.877l54.45-30.226c3.504-1.945 7.81.59 7.81 4.6l-.048 60.215-62.212-34.588z" fill="url(#h)"/></g><path d="M80.642 164.564l62.212-34.562V60.877L80.642 95.44v69.124z" fill="#ff9100"/><g><path d="M205.066 95.465v69.1l-62.212-34.59V60.878l62.212 34.588z" fill="#ff6d00"/></g><g><path d="M142.854 199.126l-62.212-34.562L142.854 130l62.212 34.564-62.212 34.562z" fill="#ffab00"/></g></g><g clip-path="url(#i)" transform="matrix(1.25 0 0 -1.25 -30 287.522)"><path d="M197.253 229.348L26.705 134.6c-3.607-2.005-3.607-7.19 0-9.196l170.548-94.748c3.505-1.948 7.813.587 7.813 4.597V224.75c0 3.065-2.515 5.268-5.266 5.267-.85 0-1.72-.21-2.547-.67" fill="url(#k)" mask="url(#j)"/></g></svg>